<?xml version="1.0" encoding="utf-8"?>
<!-- Generator: Adobe Illustrator 23.0.0, SVG Export Plug-In . SVG Version: 6.00 Build 0)  -->
<svg version="1.1" id="Layer_1" xmlns="http://www.w3.org/2000/svg" xmlns:xlink="http://www.w3.org/1999/xlink" x="0px" y="0px"
	 viewBox="0 0 1920 1080" style="enable-background:new 0 0 1920 1080;" xml:space="preserve">
<style type="text/css">
	.st0{fill:url(#SVGID_1_);}
	.st1{fill:#FFFFFF;stroke:#FFFFFF;stroke-miterlimit:10;}
	.st2{fill:url(#SVGID_2_);}
</style>
<linearGradient id="SVGID_1_" gradientUnits="userSpaceOnUse" x1="89.3143" y1="1049.3622" x2="1626.6498" y2="-487.9732">
	<stop  offset="0" style="stop-color:#BA9BC9"/>
	<stop  offset="0.1281" style="stop-color:#B19CCA;stop-opacity:0.8975"/>
	<stop  offset="0.3332" style="stop-color:#9A9FCF;stop-opacity:0.7334"/>
	<stop  offset="0.5896" style="stop-color:#74A3D5;stop-opacity:0.5283"/>
	<stop  offset="0.8848" style="stop-color:#3FA9DE;stop-opacity:0.2922"/>
	<stop  offset="1" style="stop-color:#29ABE2;stop-opacity:0.2"/>
</linearGradient>
<path class="st0" d="M-2,958c0,0,40.7-15.6,214-65.5s512.1-187.6,797.2-72.5c570.1,230.3,911.8-283.9,911.8-283.9v-729.7H-2V958z"/>
<path class="st1" d="M599.4,653.1l-37.5-43c-1.1-1.3-1.8-3-1.8-4.7l0,0V486.6c0-7.4-6-13.4-13.4-13.4h-31.6
	c-5.6,0-10.1,4.5-10.1,10.1v45.1c0,5.7-7.1,8.4-10.9,4.1L393.4,416.7c-16.7-19.1-44-19.1-60.6,0l-206,236.3
	c-7.5,8.6-11.7,20.6-11.7,33.1v243.3c0,25.1,16.7,45.5,37.4,45.5h421.3c20.7,0,37.4-20.4,37.4-45.5V686.2
	C611.1,673.7,606.9,661.7,599.4,653.1z"/>
<linearGradient id="SVGID_2_" gradientUnits="userSpaceOnUse" x1="733.8088" y1="484.3725" x2="733.8088" y2="-82.2007">
	<stop  offset="0" style="stop-color:#FFFFFF"/>
	<stop  offset="1" style="stop-color:#FFFFFF;stop-opacity:0.2"/>
</linearGradient>
<path class="st2" d="M516.4,467.7c0,0,31.8-59.4,31.8-124.5s-18.8-172.3,26.1-220C619.2,75.4,660-69.2,660-69.2
	S929.8-108,948.6-51.5s13.8,193.1-49.9,216.5s-141.9,20.4-181,71.1s-46.3,104.2-81.1,136.1s-74.7,58.8-79.1,83.4
	c-4.3,24.6,0.4,28.8,0.4,28.8h-48.5L516.4,467.7z"/>
</svg>
