<?xml version="1.0" encoding="utf-8"?>
<!-- Generator: Adobe Illustrator 23.1.1, SVG Export Plug-In . SVG Version: 6.00 Build 0)  -->
<svg version="1.1" id="Layer_1" xmlns="http://www.w3.org/2000/svg" xmlns:xlink="http://www.w3.org/1999/xlink" x="0px" y="0px"
	 viewBox="0 0 34.9 33.2" style="enable-background:new 0 0 34.9 33.2;" xml:space="preserve">
<style type="text/css">
	.st0{fill:url(#SVGID_1_);}
</style>
<linearGradient id="SVGID_1_" gradientUnits="userSpaceOnUse" x1="4.6935" y1="10.7184" x2="30.1682" y2="36.1931">
	<stop  offset="0" style="stop-color:#BA9BC9"/>
	<stop  offset="0.1559" style="stop-color:#B29CCB;stop-opacity:0.8753"/>
	<stop  offset="0.4055" style="stop-color:#9CA0D0;stop-opacity:0.6756"/>
	<stop  offset="0.7157" style="stop-color:#74A6D9;stop-opacity:0.4274"/>
	<stop  offset="1" style="stop-color:#2AAAE2;stop-opacity:0.2"/>
</linearGradient>
<path class="st0" d="M34,14.5L34,14.5c-0.1-0.1-0.2-0.1-0.3,0L17.4,30.8l0,0l0,0l-9.5-9.5c-0.1-0.1-0.1-0.2,0-0.3l3.7-3.7
	c0.1-0.1,0.2-0.1,0.3,0l5.4,5.4c0.1,0.1,0.2,0.1,0.3,0l12-12c0.1-0.1,0.1-0.2,0-0.3L19.4,0.8c-1.1-1-2.8-1-3.9,0L0.9,14.5
	C0.3,15.1,0,15.8,0,16.6v13.7c0,1.6,1.3,2.8,2.8,2.8H32c1.6,0,2.8-1.3,2.8-2.8V16.6C34.9,15.8,34.5,15.1,34,14.5z"/>
</svg>
